<?xml version="1.0" standalone="no"?><!DOCTYPE svg PUBLIC "-//W3C//DTD SVG 1.1//EN" "http://www.w3.org/Graphics/SVG/1.1/DTD/svg11.dtd"><svg t="1656992107102" class="icon" viewBox="0 0 1024 1024" version="1.1" xmlns="http://www.w3.org/2000/svg" p-id="2319" xmlns:xlink="http://www.w3.org/1999/xlink" width="200" height="200"><defs><style type="text/css">@font-face { font-family: feedback-iconfont; src: url("//at.alicdn.com/t/font_1031158_u69w8yhxdu.woff2?t=1630033759944") format("woff2"), url("//at.alicdn.com/t/font_1031158_u69w8yhxdu.woff?t=1630033759944") format("woff"), url("//at.alicdn.com/t/font_1031158_u69w8yhxdu.ttf?t=1630033759944") format("truetype"); }
</style></defs><path d="M354 334.2c-69.1 0-125.3-56.2-125.3-125.3S284.9 83.6 354 83.6s125.3 56.2 125.3 125.3S423.1 334.2 354 334.2z m0-184.9c-32.8 0-59.5 26.7-59.5 59.5s26.7 59.5 59.5 59.5 59.5-26.7 59.5-59.5-26.7-59.5-59.5-59.5zM690.6 334.2c-69.1 0-125.3-56.2-125.3-125.3S621.5 83.6 690.6 83.6s125.3 56.2 125.3 125.3-56.2 125.3-125.3 125.3z m0-184.9c-32.8 0-59.5 26.7-59.5 59.5s26.7 59.5 59.5 59.5 59.5-26.7 59.5-59.5-26.7-59.5-59.5-59.5zM513 638.5c-69.1 0-125.3-56.2-125.3-125.3S443.9 387.9 513 387.9s125.3 56.2 125.3 125.3S582.1 638.5 513 638.5z m0-184.8c-32.8 0-59.5 26.7-59.5 59.5s26.7 59.5 59.5 59.5 59.5-26.7 59.5-59.5-26.7-59.5-59.5-59.5zM513 942.9c-69.1 0-125.3-56.2-125.3-125.3S443.9 692.3 513 692.3s125.3 56.2 125.3 125.3S582.1 942.9 513 942.9z m0-184.9c-32.8 0-59.5 26.7-59.5 59.5S480.2 877 513 877s59.5-26.7 59.5-59.5S545.8 758 513 758zM178.4 619.9c-69.1 0-125.3-56.2-125.3-125.3s56.2-125.3 125.3-125.3 125.3 56.2 125.3 125.3-56.2 125.3-125.3 125.3z m0-184.8c-32.8 0-59.5 26.7-59.5 59.5s26.7 59.5 59.5 59.5 59.5-26.7 59.5-59.5-26.6-59.5-59.5-59.5zM847.6 619.9c-69.1 0-125.3-56.2-125.3-125.3s56.2-125.3 125.3-125.3 125.3 56.2 125.3 125.3-56.2 125.3-125.3 125.3z m0-184.8c-32.8 0-59.5 26.7-59.5 59.5s26.7 59.5 59.5 59.5 59.5-26.7 59.5-59.5-26.7-59.5-59.5-59.5z" p-id="2320" fill="#ffffff"></path><path d="M598.2 241.8H446.4c-18.2 0-32.9-14.7-32.9-32.9s14.7-32.9 32.9-32.9h151.8c18.2 0 32.9 14.7 32.9 32.9s-14.7 32.9-32.9 32.9zM810.7 442.8c-12 0-23.6-6.6-29.4-18l-64.4-127.4c-8.2-16.2-1.7-36 14.5-44.2 16.2-8.2 36-1.7 44.2 14.5L840 395.1c8.2 16.2 1.7 36-14.5 44.2-4.8 2.4-9.8 3.5-14.8 3.5zM215.3 442.8c-5 0-10-1.1-14.8-3.5-16.2-8.2-22.7-28-14.5-44.2l64.4-127.4c8.2-16.2 27.9-22.7 44.2-14.5 16.2 8.2 22.7 28 14.5 44.2l-64.4 127.4c-5.8 11.4-17.4 18-29.4 18zM434.5 801.9c-8.3 0-16.5-3.1-22.9-9.3L208 594.2c-13-12.7-13.3-33.5-0.6-46.5 12.7-13 33.5-13.3 46.5-0.6l203.6 198.4c13 12.7 13.3 33.5 0.6 46.5-6.5 6.5-15 9.9-23.6 9.9zM598 811c-8.6 0-17.1-3.3-23.5-9.9-12.7-13-12.4-33.8 0.6-46.5l203.5-198.4c13-12.7 33.8-12.4 46.5 0.6 12.7 13 12.4 33.8-0.6 46.5L620.9 801.6c-6.4 6.3-14.7 9.4-22.9 9.4zM463.9 449.4c-11.8 0-23.2-6.4-29.1-17.5l-66.5-126c-8.5-16.1-2.3-35.9 13.8-44.4 16-8.4 35.9-2.3 44.4 13.8l66.5 126c8.5 16.1 2.3 35.9-13.8 44.4-4.9 2.4-10.2 3.7-15.3 3.7zM572.2 449.4c-5.2 0-10.4-1.2-15.3-3.8-16.1-8.5-22.2-28.4-13.8-44.4l66.5-126c8.5-16.1 28.4-22.2 44.4-13.8 16.1 8.5 22.2 28.4 13.8 44.4l-66.5 126a32.87 32.87 0 0 1-29.1 17.6zM513 758c-18.2 0-32.9-14.7-32.9-32.9V605.6c0-18.2 14.7-32.9 32.9-32.9s32.9 14.7 32.9 32.9v119.5c0 18.2-14.7 32.9-32.9 32.9z" p-id="2321" fill="#ffffff"></path></svg>